<svg xmlns="http://www.w3.org/2000/svg" viewBox="0 0 418.75 43.75" data-asc="1" width="418.75" height="43.75"><defs/><g fill="#25538e"><g transform="translate(0, 0)"><path d="M0 43.75L0 0L25 0L25 6.25L12.50 6.25L12.50 37.50L25 37.50L25 43.75L0 43.75ZM37.50 43.75L37.50 0L75 0L75 6.25L81.25 6.25L81.25 18.75L75 18.75L75 25L81.25 25L81.25 37.50L75 37.50L75 43.75L37.50 43.75M50 18.75L68.75 18.75L68.75 6.25L50 6.25L50 18.75M50 37.50L68.75 37.50L68.75 25L50 25L50 37.50ZM87.50 43.75L87.50 12.50L93.75 12.50L93.75 6.25L100 6.25L100 0L118.75 0L118.75 6.25L125 6.25L125 12.50L131.25 12.50L131.25 43.75L118.75 43.75L118.75 31.25L100 31.25L100 43.75L87.50 43.75M100 25L118.75 25L118.75 12.50L112.50 12.50L112.50 6.25L106.25 6.25L106.25 12.50L100 12.50L100 25ZM150 43.75L150 37.50L143.75 37.50L143.75 31.25L137.50 31.25L137.50 12.50L143.75 12.50L143.75 6.25L150 6.25L150 0L175 0L175 6.25L181.25 6.25L181.25 12.50L168.75 12.50L168.75 6.25L156.25 6.25L156.25 12.50L150 12.50L150 31.25L156.25 31.25L156.25 37.50L168.75 37.50L168.75 31.25L181.25 31.25L181.25 37.50L175 37.50L175 43.75L150 43.75ZM187.50 43.75L187.50 0L200 0L200 18.75L206.25 18.75L206.25 12.50L212.50 12.50L212.50 6.25L218.75 6.25L218.75 0L231.25 0L231.25 6.25L225 6.25L225 12.50L218.75 12.50L218.75 18.75L212.50 18.75L212.50 25L218.75 25L218.75 31.25L225 31.25L225 37.50L231.25 37.50L231.25 43.75L212.50 43.75L212.50 37.50L206.25 37.50L206.25 31.25L200 31.25L200 43.75L187.50 43.75ZM237.50 43.75L237.50 0L281.25 0L281.25 6.25L250 6.25L250 18.75L275 18.75L275 25L250 25L250 37.50L281.25 37.50L281.25 43.75L237.50 43.75ZM287.50 43.75L287.50 0L300 0L300 6.25L306.25 6.25L306.25 12.50L312.50 12.50L312.50 18.75L318.75 18.75L318.75 0L331.25 0L331.25 43.75L318.75 43.75L318.75 31.25L312.50 31.25L312.50 25L306.25 25L306.25 18.75L300 18.75L300 43.75L287.50 43.75ZM337.50 43.75L337.50 0L368.75 0L368.75 6.25L375 6.25L375 12.50L381.25 12.50L381.25 31.25L375 31.25L375 37.50L368.75 37.50L368.75 43.75L337.50 43.75M350 37.50L362.50 37.50L362.50 31.25L368.75 31.25L368.75 12.50L362.50 12.50L362.50 6.25L350 6.25L350 37.50ZM393.75 43.75L393.75 37.50L406.25 37.50L406.25 6.25L393.75 6.25L393.75 0L418.75 0L418.75 43.75L393.75 43.75Z"/></g></g></svg>