<svg xmlns="http://www.w3.org/2000/svg" viewBox="0 0 468.75 43.75" data-asc="1" width="468.75" height="43.75"><defs/><g fill="#25538e"><g transform="translate(0, 0)"><path d="M0 43.75L0 0L25 0L25 6.25L12.50 6.25L12.50 37.50L25 37.50L25 43.75L0 43.75ZM37.50 43.75L37.50 0L81.25 0L81.25 6.25L50 6.25L50 18.75L75 18.75L75 25L50 25L50 43.75L37.50 43.75ZM87.50 43.75L87.50 0L125 0L125 6.25L131.25 6.25L131.25 25L118.75 25L118.75 31.25L125 31.25L125 37.50L131.25 37.50L131.25 43.75L112.50 43.75L112.50 37.50L106.25 37.50L106.25 31.25L100 31.25L100 43.75L87.50 43.75M100 25L112.50 25L112.50 18.75L118.75 18.75L118.75 6.25L100 6.25L100 25ZM143.75 43.75L143.75 37.50L137.50 37.50L137.50 6.25L143.75 6.25L143.75 0L175 0L175 6.25L181.25 6.25L181.25 37.50L175 37.50L175 43.75L143.75 43.75M150 37.50L168.75 37.50L168.75 6.25L150 6.25L150 37.50ZM187.50 43.75L187.50 0L200 0L200 6.25L206.25 6.25L206.25 12.50L212.50 12.50L212.50 18.75L218.75 18.75L218.75 0L231.25 0L231.25 43.75L218.75 43.75L218.75 31.25L212.50 31.25L212.50 25L206.25 25L206.25 18.75L200 18.75L200 43.75L187.50 43.75ZM256.25 43.75L256.25 6.25L243.75 6.25L243.75 0L281.25 0L281.25 6.25L268.75 6.25L268.75 43.75L256.25 43.75ZM287.50 43.75L287.50 0L331.25 0L331.25 6.25L300 6.25L300 18.75L325 18.75L325 25L300 25L300 37.50L331.25 37.50L331.25 43.75L287.50 43.75ZM337.50 43.75L337.50 0L350 0L350 6.25L356.25 6.25L356.25 12.50L362.50 12.50L362.50 18.75L368.75 18.75L368.75 0L381.25 0L381.25 43.75L368.75 43.75L368.75 31.25L362.50 31.25L362.50 25L356.25 25L356.25 18.75L350 18.75L350 43.75L337.50 43.75ZM387.50 43.75L387.50 0L418.75 0L418.75 6.25L425 6.25L425 12.50L431.25 12.50L431.25 31.25L425 31.25L425 37.50L418.75 37.50L418.75 43.75L387.50 43.75M400 37.50L412.50 37.50L412.50 31.25L418.75 31.25L418.75 12.50L412.50 12.50L412.50 6.25L400 6.25L400 37.50ZM443.75 43.75L443.75 37.50L456.25 37.50L456.25 6.25L443.75 6.25L443.75 0L468.75 0L468.75 43.75L443.75 43.75Z"/></g></g></svg>