<?xml version="1.0" encoding="UTF-8" standalone="no"?>
<!-- Created with Inkscape (http://www.inkscape.org/) -->

<svg
   width="51.814289mm"
   height="7.7170262mm"
   viewBox="0 0 51.814289 7.7170262"
   version="1.1"
   id="svg1"
   inkscape:version="1.4.4 (dcaf3e7d9e, 2026-05-05)"
   sodipodi:docname="kamran.svg"
   xmlns:inkscape="http://www.inkscape.org/namespaces/inkscape"
   xmlns:sodipodi="http://sodipodi.sourceforge.net/DTD/sodipodi-0.dtd"
   xmlns="http://www.w3.org/2000/svg"
   xmlns:svg="http://www.w3.org/2000/svg">
  <sodipodi:namedview
     id="namedview1"
     pagecolor="#ffffff"
     bordercolor="#000000"
     borderopacity="0.25"
     inkscape:showpageshadow="2"
     inkscape:pageopacity="0.0"
     inkscape:pagecheckerboard="0"
     inkscape:deskcolor="#d1d1d1"
     inkscape:document-units="mm"
     inkscape:zoom="0.71268238"
     inkscape:cx="186.6189"
     inkscape:cy="363.41575"
     inkscape:window-width="1920"
     inkscape:window-height="1011"
     inkscape:window-x="0"
     inkscape:window-y="0"
     inkscape:window-maximized="1"
     inkscape:current-layer="layer1" />
  <defs
     id="defs1" />
  <g
     inkscape:label="Layer 1"
     inkscape:groupmode="layer"
     id="layer1"
     transform="translate(-55.6875,-52.42548)">
    <path
       d="m 55.6875,52.42548 h 2.204863 v 3.307295 h 1.102432 v -1.102432 h 1.102432 v -1.102431 h 1.102431 V 52.42548 h 2.204864 v 1.102432 H 62.30209 v 1.102431 h -1.102432 v 1.102432 h -1.102431 v 1.102432 h 1.102431 v 1.102431 h 1.102432 v 1.102432 h 1.102432 v 1.102432 H 60.097227 V 59.04007 h -1.102432 v -1.102432 h -1.102432 v 2.204864 H 55.6875 Z m 8.819453,2.204863 h 1.102432 v -1.102431 h 1.102432 V 52.42548 h 3.307295 v 1.102432 h 1.102431 v 1.102431 h 1.102432 v 5.512159 h -2.204863 v -2.204864 h -3.307295 v 2.204864 h -2.204864 z m 3.307295,-1.102431 v 1.102431 h -1.102431 v 2.204864 h 3.307295 V 54.630343 H 68.91668 v -1.102431 z m 5.512158,-1.102432 h 2.204864 v 1.102432 h 1.102432 v 1.102431 h 1.102431 v -1.102431 h 1.102432 V 52.42548 h 2.204863 v 7.717022 h -2.204863 v -4.409727 h -1.102432 v 1.102432 H 76.633702 V 55.732775 H 75.53127 v 4.409727 h -2.204864 z m 11.024316,1.102432 v 3.307295 h 2.204863 v -1.102432 h 1.102432 v -2.204863 z m 0,4.409726 v 2.204864 H 82.145859 V 52.42548 h 6.61459 v 1.102432 h 1.102432 v 3.307295 h -2.204864 v 1.102431 h 1.102432 v 1.102432 l 1.152041,-0.01102 v 1.113456 H 86.555585 V 59.04007 h -1.102431 v -1.102432 z m 6.614591,-3.307295 h 1.102432 v -1.102431 h 1.102431 V 52.42548 h 3.307295 v 1.102432 h 1.102432 v 1.102431 h 1.102432 v 5.512159 h -2.204864 v -2.204864 h -3.307295 v 2.204864 h -2.204863 z m 3.307295,-1.102431 v 1.102431 h -1.102432 v 2.204864 h 3.307295 V 54.630343 H 95.37504 v -1.102431 z m 5.512159,-1.102432 h 2.204863 v 1.102432 h 1.10243 v 1.102431 h 1.10243 v 1.102432 h 1.10244 V 52.42548 h 2.20486 v 7.717022 h -2.20486 V 59.04007 h -1.10244 v -1.102432 h -1.10243 v -1.102431 h -1.10243 v 3.307295 h -2.204863 z"
       id="text1"
       style="font-size:11.2889px;line-height:0;font-family:'Pixel Emulator';-inkscape-font-specification:'Pixel Emulator';fill:#32a956;stroke-width:0.264583"
       aria-label="Kamran" />
  </g>
</svg>
