<svg xmlns="http://www.w3.org/2000/svg" viewBox="0 0 518.75 43.75" data-asc="1" width="518.75" height="43.75"><defs/><g fill="#25538e"><g transform="translate(0, 0)"><path d="M0 43.75L0 0L25 0L25 6.25L12.50 6.25L12.50 37.50L25 37.50L25 43.75L0 43.75ZM43.75 43.75L43.75 0L56.25 0L56.25 37.50L81.25 37.50L81.25 43.75L43.75 43.75ZM87.50 43.75L87.50 12.50L93.75 12.50L93.75 6.25L100 6.25L100 0L118.75 0L118.75 6.25L125 6.25L125 12.50L131.25 12.50L131.25 43.75L118.75 43.75L118.75 31.25L100 31.25L100 43.75L87.50 43.75M100 25L118.75 25L118.75 12.50L112.50 12.50L112.50 6.25L106.25 6.25L106.25 12.50L100 12.50L100 25ZM137.50 43.75L137.50 0L150 0L150 6.25L156.25 6.25L156.25 12.50L162.50 12.50L162.50 18.75L168.75 18.75L168.75 0L181.25 0L181.25 43.75L168.75 43.75L168.75 31.25L162.50 31.25L162.50 25L156.25 25L156.25 18.75L150 18.75L150 43.75L137.50 43.75ZM200 43.75L200 37.50L193.75 37.50L193.75 31.25L187.50 31.25L187.50 12.50L193.75 12.50L193.75 6.25L200 6.25L200 0L231.25 0L231.25 6.25L206.25 6.25L206.25 12.50L200 12.50L200 31.25L206.25 31.25L206.25 37.50L218.75 37.50L218.75 25L212.50 25L212.50 18.75L231.25 18.75L231.25 43.75L200 43.75ZM243.75 43.75L243.75 37.50L237.50 37.50L237.50 0L250 0L250 37.50L268.75 37.50L268.75 0L281.25 0L281.25 37.50L275 37.50L275 43.75L243.75 43.75ZM287.50 43.75L287.50 12.50L293.75 12.50L293.75 6.25L300 6.25L300 0L318.75 0L318.75 6.25L325 6.25L325 12.50L331.25 12.50L331.25 43.75L318.75 43.75L318.75 31.25L300 31.25L300 43.75L287.50 43.75M300 25L318.75 25L318.75 12.50L312.50 12.50L312.50 6.25L306.25 6.25L306.25 12.50L300 12.50L300 25ZM350 43.75L350 37.50L343.75 37.50L343.75 31.25L337.50 31.25L337.50 12.50L343.75 12.50L343.75 6.25L350 6.25L350 0L381.25 0L381.25 6.25L356.25 6.25L356.25 12.50L350 12.50L350 31.25L356.25 31.25L356.25 37.50L368.75 37.50L368.75 25L362.50 25L362.50 18.75L381.25 18.75L381.25 43.75L350 43.75ZM387.50 43.75L387.50 0L431.25 0L431.25 6.25L400 6.25L400 18.75L425 18.75L425 25L400 25L400 37.50L431.25 37.50L431.25 43.75L387.50 43.75ZM443.75 43.75L443.75 37.50L437.50 37.50L437.50 31.25L450 31.25L450 37.50L468.75 37.50L468.75 25L443.75 25L443.75 18.75L437.50 18.75L437.50 6.25L443.75 6.25L443.75 0L475 0L475 6.25L481.25 6.25L481.25 12.50L468.75 12.50L468.75 6.25L450 6.25L450 18.75L475 18.75L475 25L481.25 25L481.25 37.50L475 37.50L475 43.75L443.75 43.75ZM493.75 43.75L493.75 37.50L506.25 37.50L506.25 6.25L493.75 6.25L493.75 0L518.75 0L518.75 43.75L493.75 43.75Z"/></g></g></svg>