<?xml version="1.0" encoding="UTF-8" standalone="no"?>
<!-- Created with Inkscape (http://www.inkscape.org/) -->

<svg
   width="26.370483mm"
   height="2.1704102mm"
   viewBox="0 0 26.370483 2.1704102"
   version="1.1"
   id="svg1"
   sodipodi:docname="name.svg"
   inkscape:version="1.4.4 (dcaf3e7d9e, 2026-05-05)"
   xmlns:inkscape="http://www.inkscape.org/namespaces/inkscape"
   xmlns:sodipodi="http://sodipodi.sourceforge.net/DTD/sodipodi-0.dtd"
   xmlns="http://www.w3.org/2000/svg"
   xmlns:svg="http://www.w3.org/2000/svg">
  <sodipodi:namedview
     id="namedview1"
     pagecolor="#ffffff"
     bordercolor="#000000"
     borderopacity="0.25"
     inkscape:showpageshadow="2"
     inkscape:pageopacity="0.0"
     inkscape:pagecheckerboard="0"
     inkscape:deskcolor="#d1d1d1"
     inkscape:document-units="mm"
     inkscape:zoom="2.0157702"
     inkscape:cx="67.468009"
     inkscape:cy="143.86561"
     inkscape:window-width="1920"
     inkscape:window-height="1011"
     inkscape:window-x="0"
     inkscape:window-y="0"
     inkscape:window-maximized="1"
     inkscape:current-layer="layer1" />
  <defs
     id="defs1" />
  <g
     inkscape:label="Layer 1"
     inkscape:groupmode="layer"
     id="layer1"
     transform="translate(-74.621254,-65.397087)">
    <path
       style="font-size:6.175px;line-height:0;font-family:'Pixel Emulator';-inkscape-font-specification:'Pixel Emulator';fill:#32a956;stroke-width:0.264583"
       d="m 74.621254,65.397087 h 0.620117 v 0.930176 h 0.310059 v -0.310059 h 0.310058 v -0.310058 h 0.310059 v -0.310059 h 0.620117 v 0.310059 h -0.310058 v 0.310058 h -0.310059 v 0.310059 h -0.310059 v 0.310058 h 0.310059 v 0.310059 h 0.310059 v 0.310059 h 0.310058 v 0.310058 H 75.861488 V 67.257439 H 75.55143 V 66.94738 h -0.310059 v 0.620117 h -0.620117 z m 2.480469,0.620117 h 0.310058 v -0.310058 h 0.310059 v -0.310059 h 0.930176 v 0.310059 h 0.310058 v 0.310058 h 0.310059 v 1.550293 H 78.652016 V 66.94738 H 77.72184 v 0.620117 h -0.620117 z m 0.930175,-0.310058 v 0.310058 H 77.72184 v 0.620117 h 0.930176 v -0.620117 h -0.310059 v -0.310058 z m 1.550293,-0.310059 h 0.620118 v 0.310059 h 0.310058 v 0.310058 h 0.310059 v -0.310058 h 0.310058 v -0.310059 h 0.620118 v 2.17041 h -0.620118 v -1.240234 h -0.310058 v 0.310058 h -0.310059 v -0.310058 h -0.310058 v 1.240234 h -0.620118 z m 3.100586,0.310059 v 0.930175 h 0.620118 v -0.310058 h 0.310058 v -0.620117 z m 0,1.240234 v 0.620117 H 82.06266 v -2.17041 h 1.860352 v 0.310059 h 0.310058 v 0.930175 h -0.620117 v 0.310059 h 0.310059 v 0.310059 l 0.324011,-0.0031 v 0.313159 H 83.302895 V 67.257439 H 82.992836 V 66.94738 Z m 1.860352,-0.930176 h 0.310059 v -0.310058 h 0.310058 v -0.310059 h 0.930176 v 0.310059 h 0.310059 v 0.310058 h 0.310058 v 1.550293 H 86.093422 V 66.94738 h -0.930176 v 0.620117 h -0.620117 z m 0.930176,-0.310058 v 0.310058 h -0.310059 v 0.620117 h 0.930176 v -0.620117 h -0.310059 v -0.310058 z m 1.550293,-0.310059 h 0.620117 v 0.310059 h 0.310058 v 0.310058 h 0.310059 v 0.310059 h 0.310059 v -0.930176 h 0.620117 v 2.17041 H 88.573891 V 67.257439 H 88.263832 V 66.94738 h -0.310059 v -0.310059 h -0.310058 v 0.930176 h -0.620117 z m 5.596557,0.310059 v 0.930175 h 0.620118 v -0.310058 h 0.310058 v -0.620117 z m 0,1.240234 v 0.620117 h -0.620117 v -2.17041 h 1.860352 v 0.310059 h 0.310058 v 0.930175 h -0.620117 v 0.310059 h 0.310059 v 0.310059 l 0.324011,-0.0031 v 0.313159 H 93.240273 V 67.257439 H 92.930214 V 66.94738 Z m 1.860352,-0.930176 h 0.310058 v -0.310058 h 0.310059 V 65.397087 H 96.0308 v 0.310059 h 0.310058 v 0.310058 h 0.310059 v 1.550293 H 96.0308 V 66.94738 h -0.930176 v 0.620117 h -0.620117 z m 0.930176,-0.310058 v 0.310058 h -0.310059 v 0.620117 H 96.0308 v -0.620117 h -0.310059 v -0.310058 z m 3.410644,0.930175 h -1.240234 v 0.930176 h -0.620117 v -2.17041 h 1.860351 v 0.310059 h -1.240234 v 0.620117 h 1.240234 z m 1.550293,-0.930175 v 1.550293 h 0.62012 v 0.310058 h -1.860354 v -0.310058 h 0.620117 v -1.550293 h -0.620117 v -0.310059 h 1.860354 v 0.310059 z"
       id="text1"
       aria-label="KAMRAN RAFI" />
  </g>
</svg>
