<?xml version="1.0" encoding="UTF-8" standalone="no"?>
<!-- Created with Inkscape (http://www.inkscape.org/) -->

<svg
   width="121.60498mm"
   height="8.6816406mm"
   viewBox="0 0 121.60498 8.6816406"
   version="1.1"
   id="svg1"
   sodipodi:docname="skillsstatus.svg"
   inkscape:version="1.4.4 (dcaf3e7d9e, 2026-05-05)"
   xmlns:inkscape="http://www.inkscape.org/namespaces/inkscape"
   xmlns:sodipodi="http://sodipodi.sourceforge.net/DTD/sodipodi-0.dtd"
   xmlns="http://www.w3.org/2000/svg"
   xmlns:svg="http://www.w3.org/2000/svg">
  <sodipodi:namedview
     id="namedview1"
     pagecolor="#ffffff"
     bordercolor="#000000"
     borderopacity="0.25"
     inkscape:showpageshadow="2"
     inkscape:pageopacity="0.0"
     inkscape:pagecheckerboard="0"
     inkscape:deskcolor="#d1d1d1"
     inkscape:document-units="mm"
     inkscape:zoom="0.71268238"
     inkscape:cx="-234.32598"
     inkscape:cy="82.785827"
     inkscape:window-width="1920"
     inkscape:window-height="1011"
     inkscape:window-x="0"
     inkscape:window-y="0"
     inkscape:window-maximized="1"
     inkscape:current-layer="layer1" />
  <defs
     id="defs1" />
  <g
     inkscape:label="Layer 1"
     inkscape:groupmode="layer"
     id="layer1"
     transform="translate(-55.6875,-51.460861)">
    <path
       d="m 63.128906,53.94133 h -2.480469 v -1.240234 h -2.480468 v 2.480468 h 4.960937 v 1.240235 h 1.240234 v 2.480468 h -1.240234 v 1.240235 H 56.927734 V 58.902267 H 55.6875 V 57.64343 h 2.499072 l -0.0186,1.258837 h 3.720703 V 56.421799 H 56.927734 V 55.181564 H 55.6875 v -2.480468 h 1.240234 v -1.240235 h 4.960938 v 1.240235 h 1.240234 z m 2.480469,-2.480469 h 2.480469 v 3.720703 h 1.240234 V 53.94133 h 1.240234 v -1.240234 h 1.240235 v -1.240235 h 2.480468 v 1.240235 h -1.240234 v 1.240234 h -1.240234 v 1.240234 h -1.240235 v 1.240235 h 1.240235 v 1.240234 h 1.240234 v 1.240234 h 1.240234 v 1.240235 h -3.720703 v -1.240235 h -1.240234 v -1.240234 h -1.240234 v 2.480469 h -2.480469 z m 14.882812,1.240235 v 6.201171 h 2.480469 v 1.240235 H 75.53125 v -1.240235 h 2.480469 V 52.701096 H 75.53125 v -1.240235 h 7.441406 v 1.240235 z m 6.201172,6.201171 h 4.960938 v 1.240235 h -7.441406 v -8.681641 h 2.480468 z m 8.681641,0 h 4.96094 v 1.240235 H 92.894531 V 51.460861 H 95.375 Z m 13.64258,-4.960937 h -2.48047 v -1.240234 h -2.48047 v 2.480468 h 4.96094 v 1.240235 h 1.24023 v 2.480468 h -1.24023 v 1.240235 h -6.20117 v -1.240235 h -1.24024 V 57.64343 h 2.49907 l -0.0186,1.258837 h 3.7207 v -2.480468 h -4.96093 v -1.240235 h -1.24024 v -2.480468 h 1.24024 v -1.240235 h 4.96093 v 1.240235 h 1.24024 z m 19.90576,0 h -2.48047 v -1.240234 h -2.48047 v 2.480468 h 4.96094 v 1.240235 h 1.24023 v 2.480468 h -1.24023 v 1.240235 h -6.20117 v -1.240235 h -1.24024 V 57.64343 h 2.49908 l -0.0186,1.258837 h 3.72071 v -2.480468 h -4.96094 v -1.240235 h -1.24024 v -2.480468 h 1.24024 v -1.240235 h 4.96094 v 1.240235 h 1.24023 z m 4.96714,6.201172 -0.006,-7.441406 h -2.48047 v -1.240235 h 7.4414 v 1.240235 h -2.48046 v 7.441406 z m 6.19497,-6.201172 h 1.24023 v -1.240234 h 1.24024 v -1.240235 h 3.7207 v 1.240235 h 1.24024 v 1.240234 h 1.24023 v 6.201172 h -2.48047 v -2.480469 h -3.7207 v 2.480469 h -2.48047 z m 3.7207,-1.240234 v 1.240234 h -1.24023 v 2.480469 h 3.7207 V 53.94133 h -1.24023 v -1.240234 z m 8.68784,7.441406 -0.006,-7.441406 h -2.48047 v -1.240235 h 7.44141 v 1.240235 h -2.48047 v 7.441406 z m 8.67544,-8.681641 v 7.441406 h 3.72071 v -7.441406 h 2.48047 v 7.441406 h -1.24024 v 1.240235 h -6.20117 v -1.240235 h -1.24024 v -7.441406 z m 14.88282,2.480469 h -2.48047 v -1.240234 h -2.48047 v 2.480468 h 4.96094 v 1.240235 h 1.24023 v 2.480468 h -1.24023 v 1.240235 h -6.20118 v -1.240235 h -1.24023 V 57.64343 h 2.49907 l -0.0186,1.258837 h 3.7207 v -2.480468 h -4.96094 v -1.240235 h -1.24023 v -2.480468 h 1.24023 v -1.240235 h 4.96094 v 1.240235 h 1.24024 z"
       id="text1"
       style="font-size:12.7px;line-height:0;font-family:'Pixel Emulator';-inkscape-font-specification:'Pixel Emulator';fill:#32a956;stroke-width:0.264583"
       aria-label="SKILLS STATUS" />
  </g>
</svg>
